<svg xmlns="http://www.w3.org/2000/svg" width="113.872" height="113.872" viewBox="0 0 113.872 113.872">
  <path id="facebook" d="M220.521,128a21.388,21.388,0,0,1,21.351,21.351v71.17a21.388,21.388,0,0,1-21.351,21.351H206.584V197.762h14.753l2.224-17.2H206.584V169.59q0-4.152,1.742-6.227t6.783-2.076l9.045-.074V145.867a99.378,99.378,0,0,0-13.2-.667q-10.082,0-16.124,5.931t-6.042,16.755v12.677H173.964v17.2h14.827v44.111h-39.44A21.388,21.388,0,0,1,128,220.521v-71.17A21.388,21.388,0,0,1,149.351,128Z" transform="translate(-128 -128)" fill="#2c2c2c"/>
</svg>
