<svg xmlns="http://www.w3.org/2000/svg" width="113.872" height="113.872" viewBox="0 0 113.872 113.872">
  <g id="instagram" transform="translate(-45.746 -45.746)">
    <path id="Path_16" data-name="Path 16" d="M202.972,223.919A30.835,30.835,0,0,0,172.154,193.1H119.919A30.835,30.835,0,0,0,89.1,223.919v52.235a30.835,30.835,0,0,0,30.819,30.819h52.235a30.835,30.835,0,0,0,30.819-30.819Zm-31.393,22.137a25.644,25.644,0,0,0-21.563-21.563,25.1,25.1,0,0,0-3.756-.277,25.6,25.6,0,1,0,25.6,25.6A25.088,25.088,0,0,0,171.579,246.056Zm-9.3,1.379a16.478,16.478,0,0,1,.172,2.377,16.193,16.193,0,1,1-16.193-16.193,16.472,16.472,0,0,1,2.377.172A16.235,16.235,0,0,1,162.281,247.435Zm12.484-30.829a4.7,4.7,0,1,1-4.7,4.7A4.7,4.7,0,0,1,174.765,216.606Z" transform="translate(-43.354 -147.354)" fill="#2c2c2c" fill-rule="evenodd"/>
  </g>
</svg>
